<mxfile host="app.diagrams.net" modified="2023-09-05T08:27:48.973Z" agent="Mozilla/5.0 (Windows NT 10.0; Win64; x64) AppleWebKit/537.36 (KHTML, like Gecko) Chrome/116.0.0.0 Safari/537.36 Edg/116.0.1938.69" etag="j9c0DG8xM6SmWRiUZ23Q" version="21.6.9" type="device">
  <diagram name="Page-1" id="XT-UpZJP9_wlk1DqsyiN">
    <mxGraphModel dx="1195" dy="630" grid="1" gridSize="10" guides="1" tooltips="1" connect="1" arrows="1" fold="1" page="1" pageScale="1" pageWidth="850" pageHeight="1100" math="0" shadow="0">
      <root>
        <mxCell id="0" />
        <mxCell id="1" parent="0" />
        <mxCell id="GI9t5rZ3P5dNRBQiY4mY-1" value="" style="whiteSpace=wrap;html=1;fillColor=#f5f5f5;strokeColor=#666666;fontColor=#333333;" vertex="1" parent="1">
          <mxGeometry x="240" y="180" width="300" height="200" as="geometry" />
        </mxCell>
        <mxCell id="GI9t5rZ3P5dNRBQiY4mY-59" style="edgeStyle=orthogonalEdgeStyle;rounded=0;orthogonalLoop=1;jettySize=auto;html=1;exitX=0.201;exitY=0.036;exitDx=0;exitDy=0;exitPerimeter=0;" edge="1" parent="1" source="GI9t5rZ3P5dNRBQiY4mY-5" target="GI9t5rZ3P5dNRBQiY4mY-56">
          <mxGeometry relative="1" as="geometry" />
        </mxCell>
        <mxCell id="GI9t5rZ3P5dNRBQiY4mY-60" style="edgeStyle=orthogonalEdgeStyle;rounded=0;orthogonalLoop=1;jettySize=auto;html=1;exitX=0.5;exitY=0;exitDx=0;exitDy=0;" edge="1" parent="1" source="GI9t5rZ3P5dNRBQiY4mY-5" target="GI9t5rZ3P5dNRBQiY4mY-57">
          <mxGeometry relative="1" as="geometry" />
        </mxCell>
        <mxCell id="GI9t5rZ3P5dNRBQiY4mY-61" style="edgeStyle=orthogonalEdgeStyle;rounded=0;orthogonalLoop=1;jettySize=auto;html=1;exitX=0.799;exitY=-0.012;exitDx=0;exitDy=0;exitPerimeter=0;" edge="1" parent="1" source="GI9t5rZ3P5dNRBQiY4mY-5" target="GI9t5rZ3P5dNRBQiY4mY-58">
          <mxGeometry relative="1" as="geometry" />
        </mxCell>
        <mxCell id="GI9t5rZ3P5dNRBQiY4mY-54" style="edgeStyle=orthogonalEdgeStyle;rounded=0;orthogonalLoop=1;jettySize=auto;html=1;" edge="1" parent="1" source="GI9t5rZ3P5dNRBQiY4mY-2" target="GI9t5rZ3P5dNRBQiY4mY-3">
          <mxGeometry relative="1" as="geometry" />
        </mxCell>
        <mxCell id="GI9t5rZ3P5dNRBQiY4mY-2" value="" style="whiteSpace=wrap;html=1;fillColor=#fff2cc;strokeColor=#d6b656;" vertex="1" parent="1">
          <mxGeometry x="270" y="250" width="60" height="60" as="geometry" />
        </mxCell>
        <mxCell id="GI9t5rZ3P5dNRBQiY4mY-55" style="edgeStyle=orthogonalEdgeStyle;rounded=0;orthogonalLoop=1;jettySize=auto;html=1;entryX=0;entryY=0.5;entryDx=0;entryDy=0;" edge="1" parent="1" source="GI9t5rZ3P5dNRBQiY4mY-3" target="GI9t5rZ3P5dNRBQiY4mY-4">
          <mxGeometry relative="1" as="geometry" />
        </mxCell>
        <mxCell id="GI9t5rZ3P5dNRBQiY4mY-3" value="" style="whiteSpace=wrap;html=1;fillColor=#fff2cc;strokeColor=#d6b656;" vertex="1" parent="1">
          <mxGeometry x="360" y="250" width="60" height="60" as="geometry" />
        </mxCell>
        <mxCell id="GI9t5rZ3P5dNRBQiY4mY-4" value="" style="whiteSpace=wrap;html=1;fillColor=#fff2cc;strokeColor=#d6b656;" vertex="1" parent="1">
          <mxGeometry x="450" y="250" width="60" height="60" as="geometry" />
        </mxCell>
        <mxCell id="GI9t5rZ3P5dNRBQiY4mY-5" value="" style="rounded=0;whiteSpace=wrap;html=1;fillColor=#dae8fc;strokeColor=#6c8ebf;" vertex="1" parent="1">
          <mxGeometry x="240" y="400" width="300" height="60" as="geometry" />
        </mxCell>
        <mxCell id="GI9t5rZ3P5dNRBQiY4mY-6" value="" style="whiteSpace=wrap;html=1;fillColor=#d5e8d4;strokeColor=#82b366;" vertex="1" parent="1">
          <mxGeometry x="580" y="180" width="480" height="200" as="geometry" />
        </mxCell>
        <mxCell id="GI9t5rZ3P5dNRBQiY4mY-16" style="edgeStyle=orthogonalEdgeStyle;rounded=0;orthogonalLoop=1;jettySize=auto;html=1;" edge="1" parent="1" source="GI9t5rZ3P5dNRBQiY4mY-7" target="GI9t5rZ3P5dNRBQiY4mY-15">
          <mxGeometry relative="1" as="geometry" />
        </mxCell>
        <mxCell id="GI9t5rZ3P5dNRBQiY4mY-7" value="" style="whiteSpace=wrap;html=1;fillColor=#ffe6cc;strokeColor=#d79b00;" vertex="1" parent="1">
          <mxGeometry x="610" y="250" width="60" height="60" as="geometry" />
        </mxCell>
        <mxCell id="GI9t5rZ3P5dNRBQiY4mY-21" style="edgeStyle=orthogonalEdgeStyle;rounded=0;orthogonalLoop=1;jettySize=auto;html=1;entryX=0.5;entryY=1;entryDx=0;entryDy=0;" edge="1" parent="1" source="GI9t5rZ3P5dNRBQiY4mY-8" target="GI9t5rZ3P5dNRBQiY4mY-17">
          <mxGeometry relative="1" as="geometry" />
        </mxCell>
        <mxCell id="GI9t5rZ3P5dNRBQiY4mY-8" value="" style="whiteSpace=wrap;html=1;fillColor=#ffe6cc;strokeColor=#d79b00;" vertex="1" parent="1">
          <mxGeometry x="700" y="250" width="60" height="60" as="geometry" />
        </mxCell>
        <mxCell id="GI9t5rZ3P5dNRBQiY4mY-22" style="edgeStyle=orthogonalEdgeStyle;rounded=0;orthogonalLoop=1;jettySize=auto;html=1;" edge="1" parent="1" source="GI9t5rZ3P5dNRBQiY4mY-9" target="GI9t5rZ3P5dNRBQiY4mY-18">
          <mxGeometry relative="1" as="geometry" />
        </mxCell>
        <mxCell id="GI9t5rZ3P5dNRBQiY4mY-9" value="" style="whiteSpace=wrap;html=1;fillColor=#ffe6cc;strokeColor=#d79b00;" vertex="1" parent="1">
          <mxGeometry x="790" y="250" width="60" height="60" as="geometry" />
        </mxCell>
        <mxCell id="GI9t5rZ3P5dNRBQiY4mY-10" value="" style="rounded=0;whiteSpace=wrap;html=1;fillColor=#dae8fc;strokeColor=#6c8ebf;" vertex="1" parent="1">
          <mxGeometry x="580" y="400" width="480" height="60" as="geometry" />
        </mxCell>
        <mxCell id="GI9t5rZ3P5dNRBQiY4mY-23" style="edgeStyle=orthogonalEdgeStyle;rounded=0;orthogonalLoop=1;jettySize=auto;html=1;" edge="1" parent="1" source="GI9t5rZ3P5dNRBQiY4mY-11" target="GI9t5rZ3P5dNRBQiY4mY-19">
          <mxGeometry relative="1" as="geometry" />
        </mxCell>
        <mxCell id="GI9t5rZ3P5dNRBQiY4mY-11" value="" style="whiteSpace=wrap;html=1;fillColor=#ffe6cc;strokeColor=#d79b00;" vertex="1" parent="1">
          <mxGeometry x="870" y="250" width="60" height="60" as="geometry" />
        </mxCell>
        <mxCell id="GI9t5rZ3P5dNRBQiY4mY-24" style="edgeStyle=orthogonalEdgeStyle;rounded=0;orthogonalLoop=1;jettySize=auto;html=1;" edge="1" parent="1" source="GI9t5rZ3P5dNRBQiY4mY-12" target="GI9t5rZ3P5dNRBQiY4mY-20">
          <mxGeometry relative="1" as="geometry" />
        </mxCell>
        <mxCell id="GI9t5rZ3P5dNRBQiY4mY-12" value="" style="whiteSpace=wrap;html=1;fillColor=#ffe6cc;strokeColor=#d79b00;" vertex="1" parent="1">
          <mxGeometry x="960" y="250" width="60" height="60" as="geometry" />
        </mxCell>
        <mxCell id="GI9t5rZ3P5dNRBQiY4mY-14" value="" style="rounded=0;whiteSpace=wrap;html=1;fillColor=#e1d5e7;strokeColor=#9673a6;" vertex="1" parent="1">
          <mxGeometry x="580" y="90" width="480" height="60" as="geometry" />
        </mxCell>
        <mxCell id="GI9t5rZ3P5dNRBQiY4mY-44" style="edgeStyle=orthogonalEdgeStyle;rounded=0;orthogonalLoop=1;jettySize=auto;html=1;entryX=0.125;entryY=1.013;entryDx=0;entryDy=0;entryPerimeter=0;" edge="1" parent="1" source="GI9t5rZ3P5dNRBQiY4mY-15" target="GI9t5rZ3P5dNRBQiY4mY-14">
          <mxGeometry relative="1" as="geometry" />
        </mxCell>
        <mxCell id="GI9t5rZ3P5dNRBQiY4mY-15" value="y&#39;0" style="text;html=1;strokeColor=none;fillColor=none;align=center;verticalAlign=middle;whiteSpace=wrap;rounded=0;" vertex="1" parent="1">
          <mxGeometry x="610" y="200" width="60" height="30" as="geometry" />
        </mxCell>
        <mxCell id="GI9t5rZ3P5dNRBQiY4mY-45" style="edgeStyle=orthogonalEdgeStyle;rounded=0;orthogonalLoop=1;jettySize=auto;html=1;entryX=0.313;entryY=1.013;entryDx=0;entryDy=0;entryPerimeter=0;" edge="1" parent="1" source="GI9t5rZ3P5dNRBQiY4mY-17" target="GI9t5rZ3P5dNRBQiY4mY-14">
          <mxGeometry relative="1" as="geometry" />
        </mxCell>
        <mxCell id="GI9t5rZ3P5dNRBQiY4mY-17" value="y&#39;1" style="text;html=1;strokeColor=none;fillColor=none;align=center;verticalAlign=middle;whiteSpace=wrap;rounded=0;" vertex="1" parent="1">
          <mxGeometry x="700" y="200" width="60" height="30" as="geometry" />
        </mxCell>
        <mxCell id="GI9t5rZ3P5dNRBQiY4mY-46" style="edgeStyle=orthogonalEdgeStyle;rounded=0;orthogonalLoop=1;jettySize=auto;html=1;entryX=0.5;entryY=1;entryDx=0;entryDy=0;" edge="1" parent="1" source="GI9t5rZ3P5dNRBQiY4mY-18" target="GI9t5rZ3P5dNRBQiY4mY-14">
          <mxGeometry relative="1" as="geometry" />
        </mxCell>
        <mxCell id="GI9t5rZ3P5dNRBQiY4mY-18" value="y&#39;2" style="text;html=1;strokeColor=none;fillColor=none;align=center;verticalAlign=middle;whiteSpace=wrap;rounded=0;" vertex="1" parent="1">
          <mxGeometry x="790" y="200" width="60" height="30" as="geometry" />
        </mxCell>
        <mxCell id="GI9t5rZ3P5dNRBQiY4mY-48" style="edgeStyle=orthogonalEdgeStyle;rounded=0;orthogonalLoop=1;jettySize=auto;html=1;entryX=0.667;entryY=1.047;entryDx=0;entryDy=0;entryPerimeter=0;" edge="1" parent="1" source="GI9t5rZ3P5dNRBQiY4mY-19" target="GI9t5rZ3P5dNRBQiY4mY-14">
          <mxGeometry relative="1" as="geometry" />
        </mxCell>
        <mxCell id="GI9t5rZ3P5dNRBQiY4mY-19" value="y&#39;3" style="text;html=1;strokeColor=none;fillColor=none;align=center;verticalAlign=middle;whiteSpace=wrap;rounded=0;" vertex="1" parent="1">
          <mxGeometry x="870" y="200" width="60" height="30" as="geometry" />
        </mxCell>
        <mxCell id="GI9t5rZ3P5dNRBQiY4mY-50" style="edgeStyle=orthogonalEdgeStyle;rounded=0;orthogonalLoop=1;jettySize=auto;html=1;entryX=0.854;entryY=1.02;entryDx=0;entryDy=0;entryPerimeter=0;" edge="1" parent="1" source="GI9t5rZ3P5dNRBQiY4mY-20" target="GI9t5rZ3P5dNRBQiY4mY-14">
          <mxGeometry relative="1" as="geometry" />
        </mxCell>
        <mxCell id="GI9t5rZ3P5dNRBQiY4mY-20" value="y&#39;4" style="text;html=1;strokeColor=none;fillColor=none;align=center;verticalAlign=middle;whiteSpace=wrap;rounded=0;" vertex="1" parent="1">
          <mxGeometry x="960" y="200" width="60" height="30" as="geometry" />
        </mxCell>
        <mxCell id="GI9t5rZ3P5dNRBQiY4mY-31" style="edgeStyle=orthogonalEdgeStyle;rounded=0;orthogonalLoop=1;jettySize=auto;html=1;exitX=0.126;exitY=0.018;exitDx=0;exitDy=0;exitPerimeter=0;" edge="1" parent="1" source="GI9t5rZ3P5dNRBQiY4mY-10" target="GI9t5rZ3P5dNRBQiY4mY-25">
          <mxGeometry relative="1" as="geometry" />
        </mxCell>
        <mxCell id="GI9t5rZ3P5dNRBQiY4mY-38" style="edgeStyle=orthogonalEdgeStyle;rounded=0;orthogonalLoop=1;jettySize=auto;html=1;entryX=0.5;entryY=1;entryDx=0;entryDy=0;" edge="1" parent="1" source="GI9t5rZ3P5dNRBQiY4mY-25" target="GI9t5rZ3P5dNRBQiY4mY-7">
          <mxGeometry relative="1" as="geometry" />
        </mxCell>
        <mxCell id="GI9t5rZ3P5dNRBQiY4mY-25" value="x&#39;0" style="text;html=1;strokeColor=none;fillColor=none;align=center;verticalAlign=middle;whiteSpace=wrap;rounded=0;" vertex="1" parent="1">
          <mxGeometry x="610" y="330" width="60" height="30" as="geometry" />
        </mxCell>
        <mxCell id="GI9t5rZ3P5dNRBQiY4mY-33" style="edgeStyle=orthogonalEdgeStyle;rounded=0;orthogonalLoop=1;jettySize=auto;html=1;exitX=0.312;exitY=0.006;exitDx=0;exitDy=0;exitPerimeter=0;" edge="1" parent="1" source="GI9t5rZ3P5dNRBQiY4mY-10" target="GI9t5rZ3P5dNRBQiY4mY-26">
          <mxGeometry relative="1" as="geometry" />
        </mxCell>
        <mxCell id="GI9t5rZ3P5dNRBQiY4mY-39" style="edgeStyle=orthogonalEdgeStyle;rounded=0;orthogonalLoop=1;jettySize=auto;html=1;entryX=0.5;entryY=1;entryDx=0;entryDy=0;" edge="1" parent="1" source="GI9t5rZ3P5dNRBQiY4mY-26" target="GI9t5rZ3P5dNRBQiY4mY-8">
          <mxGeometry relative="1" as="geometry" />
        </mxCell>
        <mxCell id="GI9t5rZ3P5dNRBQiY4mY-26" value="x&#39;1" style="text;html=1;strokeColor=none;fillColor=none;align=center;verticalAlign=middle;whiteSpace=wrap;rounded=0;" vertex="1" parent="1">
          <mxGeometry x="700" y="330" width="60" height="30" as="geometry" />
        </mxCell>
        <mxCell id="GI9t5rZ3P5dNRBQiY4mY-34" style="edgeStyle=orthogonalEdgeStyle;rounded=0;orthogonalLoop=1;jettySize=auto;html=1;exitX=0.5;exitY=0;exitDx=0;exitDy=0;" edge="1" parent="1" source="GI9t5rZ3P5dNRBQiY4mY-10" target="GI9t5rZ3P5dNRBQiY4mY-27">
          <mxGeometry relative="1" as="geometry" />
        </mxCell>
        <mxCell id="GI9t5rZ3P5dNRBQiY4mY-40" style="edgeStyle=orthogonalEdgeStyle;rounded=0;orthogonalLoop=1;jettySize=auto;html=1;entryX=0.5;entryY=1;entryDx=0;entryDy=0;" edge="1" parent="1" source="GI9t5rZ3P5dNRBQiY4mY-27" target="GI9t5rZ3P5dNRBQiY4mY-9">
          <mxGeometry relative="1" as="geometry" />
        </mxCell>
        <mxCell id="GI9t5rZ3P5dNRBQiY4mY-27" value="x&#39;2" style="text;html=1;strokeColor=none;fillColor=none;align=center;verticalAlign=middle;whiteSpace=wrap;rounded=0;" vertex="1" parent="1">
          <mxGeometry x="790" y="330" width="60" height="30" as="geometry" />
        </mxCell>
        <mxCell id="GI9t5rZ3P5dNRBQiY4mY-35" style="edgeStyle=orthogonalEdgeStyle;rounded=0;orthogonalLoop=1;jettySize=auto;html=1;exitX=0.667;exitY=0.006;exitDx=0;exitDy=0;exitPerimeter=0;" edge="1" parent="1" source="GI9t5rZ3P5dNRBQiY4mY-10" target="GI9t5rZ3P5dNRBQiY4mY-28">
          <mxGeometry relative="1" as="geometry" />
        </mxCell>
        <mxCell id="GI9t5rZ3P5dNRBQiY4mY-41" style="edgeStyle=orthogonalEdgeStyle;rounded=0;orthogonalLoop=1;jettySize=auto;html=1;entryX=0.5;entryY=1;entryDx=0;entryDy=0;" edge="1" parent="1" source="GI9t5rZ3P5dNRBQiY4mY-28" target="GI9t5rZ3P5dNRBQiY4mY-11">
          <mxGeometry relative="1" as="geometry" />
        </mxCell>
        <mxCell id="GI9t5rZ3P5dNRBQiY4mY-28" value="x&#39;3" style="text;html=1;strokeColor=none;fillColor=none;align=center;verticalAlign=middle;whiteSpace=wrap;rounded=0;" vertex="1" parent="1">
          <mxGeometry x="870" y="330" width="60" height="30" as="geometry" />
        </mxCell>
        <mxCell id="GI9t5rZ3P5dNRBQiY4mY-36" style="edgeStyle=orthogonalEdgeStyle;rounded=0;orthogonalLoop=1;jettySize=auto;html=1;exitX=0.855;exitY=-0.005;exitDx=0;exitDy=0;exitPerimeter=0;" edge="1" parent="1" source="GI9t5rZ3P5dNRBQiY4mY-10" target="GI9t5rZ3P5dNRBQiY4mY-29">
          <mxGeometry relative="1" as="geometry" />
        </mxCell>
        <mxCell id="GI9t5rZ3P5dNRBQiY4mY-42" style="edgeStyle=orthogonalEdgeStyle;rounded=0;orthogonalLoop=1;jettySize=auto;html=1;entryX=0.5;entryY=1;entryDx=0;entryDy=0;" edge="1" parent="1" source="GI9t5rZ3P5dNRBQiY4mY-29" target="GI9t5rZ3P5dNRBQiY4mY-12">
          <mxGeometry relative="1" as="geometry" />
        </mxCell>
        <mxCell id="GI9t5rZ3P5dNRBQiY4mY-29" value="x&#39;4" style="text;html=1;strokeColor=none;fillColor=none;align=center;verticalAlign=middle;whiteSpace=wrap;rounded=0;" vertex="1" parent="1">
          <mxGeometry x="960" y="330" width="60" height="30" as="geometry" />
        </mxCell>
        <mxCell id="GI9t5rZ3P5dNRBQiY4mY-53" style="edgeStyle=orthogonalEdgeStyle;rounded=0;orthogonalLoop=1;jettySize=auto;html=1;entryX=0;entryY=0.5;entryDx=0;entryDy=0;" edge="1" parent="1">
          <mxGeometry relative="1" as="geometry">
            <mxPoint x="470" y="280" as="sourcePoint" />
            <mxPoint x="610" y="280" as="targetPoint" />
          </mxGeometry>
        </mxCell>
        <mxCell id="GI9t5rZ3P5dNRBQiY4mY-62" style="edgeStyle=orthogonalEdgeStyle;rounded=0;orthogonalLoop=1;jettySize=auto;html=1;entryX=0.5;entryY=1;entryDx=0;entryDy=0;" edge="1" parent="1" source="GI9t5rZ3P5dNRBQiY4mY-56" target="GI9t5rZ3P5dNRBQiY4mY-2">
          <mxGeometry relative="1" as="geometry" />
        </mxCell>
        <mxCell id="GI9t5rZ3P5dNRBQiY4mY-56" value="x0" style="text;html=1;strokeColor=none;fillColor=none;align=center;verticalAlign=middle;whiteSpace=wrap;rounded=0;" vertex="1" parent="1">
          <mxGeometry x="270" y="330" width="60" height="30" as="geometry" />
        </mxCell>
        <mxCell id="GI9t5rZ3P5dNRBQiY4mY-63" style="edgeStyle=orthogonalEdgeStyle;rounded=0;orthogonalLoop=1;jettySize=auto;html=1;entryX=0.5;entryY=1;entryDx=0;entryDy=0;" edge="1" parent="1" source="GI9t5rZ3P5dNRBQiY4mY-57" target="GI9t5rZ3P5dNRBQiY4mY-3">
          <mxGeometry relative="1" as="geometry" />
        </mxCell>
        <mxCell id="GI9t5rZ3P5dNRBQiY4mY-57" value="x1" style="text;html=1;strokeColor=none;fillColor=none;align=center;verticalAlign=middle;whiteSpace=wrap;rounded=0;" vertex="1" parent="1">
          <mxGeometry x="360" y="330" width="60" height="30" as="geometry" />
        </mxCell>
        <mxCell id="GI9t5rZ3P5dNRBQiY4mY-64" style="edgeStyle=orthogonalEdgeStyle;rounded=0;orthogonalLoop=1;jettySize=auto;html=1;entryX=0.5;entryY=1;entryDx=0;entryDy=0;" edge="1" parent="1" source="GI9t5rZ3P5dNRBQiY4mY-58" target="GI9t5rZ3P5dNRBQiY4mY-4">
          <mxGeometry relative="1" as="geometry" />
        </mxCell>
        <mxCell id="GI9t5rZ3P5dNRBQiY4mY-58" value="x2" style="text;html=1;strokeColor=none;fillColor=none;align=center;verticalAlign=middle;whiteSpace=wrap;rounded=0;" vertex="1" parent="1">
          <mxGeometry x="450" y="330" width="60" height="30" as="geometry" />
        </mxCell>
        <mxCell id="GI9t5rZ3P5dNRBQiY4mY-71" style="edgeStyle=orthogonalEdgeStyle;rounded=0;orthogonalLoop=1;jettySize=auto;html=1;exitX=0.126;exitY=-0.015;exitDx=0;exitDy=0;exitPerimeter=0;" edge="1" parent="1" source="GI9t5rZ3P5dNRBQiY4mY-14" target="GI9t5rZ3P5dNRBQiY4mY-65">
          <mxGeometry relative="1" as="geometry" />
        </mxCell>
        <mxCell id="GI9t5rZ3P5dNRBQiY4mY-65" value="24" style="text;html=1;strokeColor=none;fillColor=none;align=center;verticalAlign=middle;whiteSpace=wrap;rounded=0;" vertex="1" parent="1">
          <mxGeometry x="610" y="40" width="60" height="30" as="geometry" />
        </mxCell>
        <mxCell id="GI9t5rZ3P5dNRBQiY4mY-72" style="edgeStyle=orthogonalEdgeStyle;rounded=0;orthogonalLoop=1;jettySize=auto;html=1;exitX=0.313;exitY=0;exitDx=0;exitDy=0;exitPerimeter=0;entryX=0.312;entryY=1.037;entryDx=0;entryDy=0;entryPerimeter=0;curved=1;fillColor=#f8cecc;strokeColor=#b85450;" edge="1" parent="1" source="GI9t5rZ3P5dNRBQiY4mY-14" target="GI9t5rZ3P5dNRBQiY4mY-10">
          <mxGeometry relative="1" as="geometry">
            <Array as="points">
              <mxPoint x="730" y="70" />
              <mxPoint x="680" y="70" />
              <mxPoint x="680" y="510" />
              <mxPoint x="730" y="510" />
            </Array>
          </mxGeometry>
        </mxCell>
        <mxCell id="GI9t5rZ3P5dNRBQiY4mY-66" value="2312" style="text;html=1;strokeColor=none;fillColor=none;align=center;verticalAlign=middle;whiteSpace=wrap;rounded=0;" vertex="1" parent="1">
          <mxGeometry x="700" y="40" width="60" height="30" as="geometry" />
        </mxCell>
        <mxCell id="GI9t5rZ3P5dNRBQiY4mY-74" style="edgeStyle=orthogonalEdgeStyle;rounded=0;orthogonalLoop=1;jettySize=auto;html=1;exitX=0.5;exitY=0;exitDx=0;exitDy=0;entryX=0.49;entryY=1.023;entryDx=0;entryDy=0;entryPerimeter=0;curved=1;fillColor=#f8cecc;strokeColor=#b85450;" edge="1" parent="1" source="GI9t5rZ3P5dNRBQiY4mY-14" target="GI9t5rZ3P5dNRBQiY4mY-10">
          <mxGeometry relative="1" as="geometry">
            <Array as="points">
              <mxPoint x="820" y="70" />
              <mxPoint x="770" y="70" />
              <mxPoint x="770" y="510" />
              <mxPoint x="815" y="510" />
            </Array>
          </mxGeometry>
        </mxCell>
        <mxCell id="GI9t5rZ3P5dNRBQiY4mY-67" value="4" style="text;html=1;strokeColor=none;fillColor=none;align=center;verticalAlign=middle;whiteSpace=wrap;rounded=0;" vertex="1" parent="1">
          <mxGeometry x="790" y="40" width="60" height="30" as="geometry" />
        </mxCell>
        <mxCell id="GI9t5rZ3P5dNRBQiY4mY-75" style="edgeStyle=orthogonalEdgeStyle;rounded=0;orthogonalLoop=1;jettySize=auto;html=1;exitX=0.667;exitY=0;exitDx=0;exitDy=0;exitPerimeter=0;entryX=0.667;entryY=1.077;entryDx=0;entryDy=0;entryPerimeter=0;curved=1;fillColor=#f8cecc;strokeColor=#b85450;" edge="1" parent="1" source="GI9t5rZ3P5dNRBQiY4mY-14" target="GI9t5rZ3P5dNRBQiY4mY-10">
          <mxGeometry relative="1" as="geometry">
            <Array as="points">
              <mxPoint x="900" y="70" />
              <mxPoint x="860" y="70" />
              <mxPoint x="860" y="510" />
              <mxPoint x="900" y="510" />
            </Array>
          </mxGeometry>
        </mxCell>
        <mxCell id="GI9t5rZ3P5dNRBQiY4mY-68" value="2325" style="text;html=1;strokeColor=none;fillColor=none;align=center;verticalAlign=middle;whiteSpace=wrap;rounded=0;" vertex="1" parent="1">
          <mxGeometry x="870" y="40" width="60" height="30" as="geometry" />
        </mxCell>
        <mxCell id="GI9t5rZ3P5dNRBQiY4mY-76" style="edgeStyle=orthogonalEdgeStyle;rounded=0;orthogonalLoop=1;jettySize=auto;html=1;exitX=0.854;exitY=0;exitDx=0;exitDy=0;exitPerimeter=0;curved=1;entryX=0.852;entryY=0.983;entryDx=0;entryDy=0;entryPerimeter=0;fillColor=#f8cecc;strokeColor=#b85450;" edge="1" parent="1" source="GI9t5rZ3P5dNRBQiY4mY-14" target="GI9t5rZ3P5dNRBQiY4mY-10">
          <mxGeometry relative="1" as="geometry">
            <mxPoint x="990" y="470" as="targetPoint" />
            <Array as="points">
              <mxPoint x="990" y="70" />
              <mxPoint x="940" y="70" />
              <mxPoint x="940" y="510" />
              <mxPoint x="989" y="510" />
            </Array>
          </mxGeometry>
        </mxCell>
        <mxCell id="GI9t5rZ3P5dNRBQiY4mY-69" value="66" style="text;html=1;strokeColor=none;fillColor=none;align=center;verticalAlign=middle;whiteSpace=wrap;rounded=0;" vertex="1" parent="1">
          <mxGeometry x="960" y="40" width="60" height="30" as="geometry" />
        </mxCell>
        <mxCell id="GI9t5rZ3P5dNRBQiY4mY-77" value="&lt;b&gt;&lt;font style=&quot;font-size: 15px;&quot;&gt;TimeDistributed (Softmax)&lt;/font&gt;&lt;/b&gt;" style="text;html=1;strokeColor=none;fillColor=none;align=center;verticalAlign=middle;whiteSpace=wrap;rounded=0;" vertex="1" parent="1">
          <mxGeometry x="715" y="105" width="210" height="30" as="geometry" />
        </mxCell>
        <mxCell id="GI9t5rZ3P5dNRBQiY4mY-79" value="&lt;font style=&quot;font-size: 15px;&quot;&gt;&lt;b&gt;Embedding Lookup (mBERT)&lt;/b&gt;&lt;/font&gt;" style="text;html=1;strokeColor=none;fillColor=none;align=center;verticalAlign=middle;whiteSpace=wrap;rounded=0;" vertex="1" parent="1">
          <mxGeometry x="275" y="415" width="230" height="30" as="geometry" />
        </mxCell>
        <mxCell id="GI9t5rZ3P5dNRBQiY4mY-83" style="edgeStyle=orthogonalEdgeStyle;rounded=0;orthogonalLoop=1;jettySize=auto;html=1;entryX=0.197;entryY=1.039;entryDx=0;entryDy=0;entryPerimeter=0;" edge="1" parent="1" source="GI9t5rZ3P5dNRBQiY4mY-80" target="GI9t5rZ3P5dNRBQiY4mY-5">
          <mxGeometry relative="1" as="geometry" />
        </mxCell>
        <mxCell id="GI9t5rZ3P5dNRBQiY4mY-80" value="232" style="text;html=1;strokeColor=none;fillColor=none;align=center;verticalAlign=middle;whiteSpace=wrap;rounded=0;" vertex="1" parent="1">
          <mxGeometry x="270" y="490" width="60" height="30" as="geometry" />
        </mxCell>
        <mxCell id="GI9t5rZ3P5dNRBQiY4mY-84" style="edgeStyle=orthogonalEdgeStyle;rounded=0;orthogonalLoop=1;jettySize=auto;html=1;entryX=0.5;entryY=1;entryDx=0;entryDy=0;" edge="1" parent="1" source="GI9t5rZ3P5dNRBQiY4mY-81" target="GI9t5rZ3P5dNRBQiY4mY-5">
          <mxGeometry relative="1" as="geometry" />
        </mxCell>
        <mxCell id="GI9t5rZ3P5dNRBQiY4mY-81" value="123" style="text;html=1;strokeColor=none;fillColor=none;align=center;verticalAlign=middle;whiteSpace=wrap;rounded=0;" vertex="1" parent="1">
          <mxGeometry x="360" y="490" width="60" height="30" as="geometry" />
        </mxCell>
        <mxCell id="GI9t5rZ3P5dNRBQiY4mY-86" style="edgeStyle=orthogonalEdgeStyle;rounded=0;orthogonalLoop=1;jettySize=auto;html=1;entryX=0.8;entryY=1.048;entryDx=0;entryDy=0;entryPerimeter=0;" edge="1" parent="1" source="GI9t5rZ3P5dNRBQiY4mY-82" target="GI9t5rZ3P5dNRBQiY4mY-5">
          <mxGeometry relative="1" as="geometry" />
        </mxCell>
        <mxCell id="GI9t5rZ3P5dNRBQiY4mY-82" value="55" style="text;html=1;strokeColor=none;fillColor=none;align=center;verticalAlign=middle;whiteSpace=wrap;rounded=0;" vertex="1" parent="1">
          <mxGeometry x="450" y="490" width="60" height="30" as="geometry" />
        </mxCell>
        <mxCell id="GI9t5rZ3P5dNRBQiY4mY-89" style="edgeStyle=orthogonalEdgeStyle;rounded=0;orthogonalLoop=1;jettySize=auto;html=1;entryX=0.125;entryY=0.977;entryDx=0;entryDy=0;entryPerimeter=0;" edge="1" parent="1" source="GI9t5rZ3P5dNRBQiY4mY-88" target="GI9t5rZ3P5dNRBQiY4mY-10">
          <mxGeometry relative="1" as="geometry" />
        </mxCell>
        <mxCell id="GI9t5rZ3P5dNRBQiY4mY-88" value="0" style="text;html=1;strokeColor=none;fillColor=none;align=center;verticalAlign=middle;whiteSpace=wrap;rounded=0;" vertex="1" parent="1">
          <mxGeometry x="610" y="480" width="60" height="30" as="geometry" />
        </mxCell>
        <mxCell id="GI9t5rZ3P5dNRBQiY4mY-93" value="&lt;font style=&quot;font-size: 15px;&quot;&gt;&lt;b&gt;Embedding Lookup (mBERT)&lt;/b&gt;&lt;/font&gt;" style="text;html=1;strokeColor=none;fillColor=none;align=center;verticalAlign=middle;whiteSpace=wrap;rounded=0;" vertex="1" parent="1">
          <mxGeometry x="710" y="415" width="220" height="30" as="geometry" />
        </mxCell>
      </root>
    </mxGraphModel>
  </diagram>
</mxfile>
